<?xml version="1.0" encoding="UTF-8"?>
<svg id="Capa_2" data-name="Capa 2" xmlns="http://www.w3.org/2000/svg" viewBox="0 0 258.65 47.13">
  <defs>
    <style>
      .cls-1 {
        fill: #045491;
        font-family: YuGothicUI-Light, 'Yu Gothic UI';
        font-size: 40px;
        font-weight: 300;
      }

      .cls-2 {
        letter-spacing: .02em;
      }

      .cls-3 {
        letter-spacing: -.03em;
      }

      .cls-4 {
        fill: none;
        stroke: #055797;
        stroke-miterlimit: 10;
      }

      .cls-5 {
        letter-spacing: .02em;
      }
    </style>
  </defs>
  <text class="cls-1" transform="translate(64.18 35.2)"><tspan class="cls-5" x="0" y="0">Pyme</tspan><tspan class="cls-3" x="95.83" y="0">F</tspan><tspan class="cls-2" x="113.35" y="0">orge</tspan></text>
  <g>
    <path class="cls-4" d="m13.44,5.78c-.06-.56-.03-1.13.12-1.67.32-1.09,1.14-1.95,2.09-2.53,1.39-.84,3.54-1.09,5.01-.33.78.4,1.35,1.1,2.06,1.62.96.7,1.93.81,3.07.82,1.12.01,2.25-.02,3.37-.09,1.07-.07,1.8-.72,2.55-1.41.8-.74,1.82-1.23,2.9-1.38,2.13-.29,4.49.74,5.27,2.83.58,1.54.47,3.27-.48,4.64-.88,1.27-2.36,2.04-3.9,2.08-1.86.05-3.21-1.04-4.63-2.09-1.14-.84-2.55-.9-3.91-.95-1-.03-2.03.03-2.97.39-1.03.4-1.64,1.22-2.52,1.83-1.8,1.26-4.88,1.21-6.48-.39-.65-.64-1.09-1.47-1.35-2.34-.1-.33-.17-.68-.21-1.03Z"/>
    <path class="cls-4" d="m13.44,35.39c-.06-.56-.03-1.13.12-1.67.32-1.09,1.14-1.95,2.09-2.53,1.39-.84,3.54-1.09,5.01-.33.78.4,1.35,1.1,2.06,1.62.96.7,1.93.81,3.07.82,1.12.01,2.25-.02,3.37-.09,1.07-.07,1.8-.72,2.55-1.41.8-.74,1.82-1.23,2.9-1.38,2.13-.29,4.49.74,5.27,2.83.58,1.54.47,3.27-.48,4.64-.88,1.27-2.36,2.04-3.9,2.08-1.86.05-3.21-1.04-4.63-2.09-1.14-.84-2.55-.9-3.91-.95-1-.03-2.03.03-2.97.39-1.03.4-1.64,1.22-2.52,1.83-1.8,1.26-4.88,1.21-6.48-.39-.65-.64-1.09-1.47-1.35-2.34-.1-.33-.17-.68-.21-1.03Z"/>
    <path class="cls-4" d="m.5,19.94c.02-.43.08-.86.2-1.28,1.19-4.35,6.8-5.84,10.06-2.79.59.55,1.09,1.23,1.81,1.59.59.3,1.27.35,1.93.4,2.45.17,5.09.3,7.18-.98.96-.59,1.75-1.45,2.73-2.01,1.67-.94,3.86-.88,5.47.16.89.57,1.59,1.4,2.48,1.95,1.59.97,3.56.96,5.42.92,1.15-.03,2.33-.06,3.37-.55,1.14-.54,1.97-1.56,3.03-2.24,1.92-1.23,4.58-1.16,6.46.13s2.88,3.73,2.51,5.98-2.1,4.21-4.27,4.92c-1.38.45-2.97.4-4.23-.33-1.26-.73-2.11-2.06-3.4-2.74-1.19-.63-2.6-.64-3.94-.63-1.69,0-3.49.05-4.92.97-.89.57-1.55,1.44-2.41,2.05-1.48,1.05-3.54,1.22-5.18.43-1.49-.72-2.56-2.12-4.05-2.83-1.35-.64-2.9-.65-4.39-.65-1.07,0-2.17,0-3.15.43-1.28.55-2.18,1.71-3.35,2.48-2.04,1.34-4.91,1.28-6.88-.15-1.62-1.18-2.56-3.22-2.48-5.21Z"/>
  </g>
</svg>