<?xml version="1.0" encoding="UTF-8"?>
<svg id="Capa_1" data-name="Capa 1" xmlns="http://www.w3.org/2000/svg" viewBox="0 0 30.47 22.95">
  <defs>
    <style>
      .cls-1 {
        fill: none;
        stroke: #055797;
        stroke-miterlimit: 10;
      }
    </style>
  </defs>
  <path class="cls-1" d="m7.73,3.31c-.04-.31-.02-.63.07-.94.18-.61.64-1.09,1.17-1.41.78-.47,1.98-.61,2.8-.18.43.22.76.61,1.15.9.54.39,1.08.45,1.72.46.63,0,1.26-.01,1.88-.05.6-.04,1.01-.4,1.42-.79.45-.41,1.02-.69,1.62-.77,1.19-.16,2.51.41,2.95,1.58.32.86.26,1.83-.27,2.6-.49.71-1.32,1.14-2.18,1.16-1.04.03-1.79-.58-2.59-1.17-.64-.47-1.42-.5-2.19-.53-.56-.02-1.13.02-1.66.22-.58.22-.92.68-1.41,1.02-1.01.71-2.73.68-3.62-.22-.36-.36-.61-.82-.75-1.31-.06-.19-.1-.38-.12-.57Z"/>
  <path class="cls-1" d="m7.73,19.86c-.04-.31-.02-.63.07-.94.18-.61.64-1.09,1.17-1.41.78-.47,1.98-.61,2.8-.18.43.22.76.61,1.15.9.54.39,1.08.45,1.72.46.63,0,1.26-.01,1.88-.05.6-.04,1.01-.4,1.42-.79.45-.41,1.02-.69,1.62-.77,1.19-.16,2.51.41,2.95,1.58.32.86.26,1.83-.27,2.6-.49.71-1.32,1.14-2.18,1.16-1.04.03-1.79-.58-2.59-1.17-.64-.47-1.42-.5-2.19-.53-.56-.02-1.13.02-1.66.22-.58.22-.92.68-1.41,1.02-1.01.71-2.73.68-3.62-.22-.36-.36-.61-.82-.75-1.31-.06-.19-.1-.38-.12-.57Z"/>
  <path class="cls-1" d="m.5,11.22c0-.24.05-.48.11-.72.67-2.43,3.8-3.27,5.62-1.56.33.31.61.69,1.01.89.33.17.71.19,1.08.22,1.37.1,2.84.17,4.01-.55.54-.33.98-.81,1.53-1.12.93-.53,2.16-.49,3.06.09.49.32.89.78,1.39,1.09.89.54,1.99.54,3.03.51.64-.01,1.3-.03,1.88-.31.64-.3,1.1-.87,1.69-1.25,1.07-.69,2.56-.65,3.61.08s1.61,2.09,1.4,3.34-1.17,2.36-2.38,2.75c-.77.25-1.66.22-2.36-.18-.71-.41-1.18-1.15-1.9-1.53-.66-.35-1.45-.36-2.2-.35-.95,0-1.95.03-2.75.54-.5.32-.87.8-1.35,1.14-.83.59-1.98.68-2.89.24-.83-.4-1.43-1.19-2.27-1.58-.75-.36-1.62-.36-2.45-.36-.6,0-1.21,0-1.76.24-.72.31-1.22.96-1.87,1.39-1.14.75-2.74.72-3.85-.09-.91-.66-1.43-1.8-1.39-2.91Z"/>
</svg>